<?xml version="1.0" standalone="no"?>
<!DOCTYPE svg PUBLIC "-//W3C//DTD SVG 20010904//EN"
 "http://www.w3.org/TR/2001/REC-SVG-20010904/DTD/svg10.dtd">
<svg version="1.0" xmlns="http://www.w3.org/2000/svg"
 width="1920.000000pt" height="1920.000000pt" viewBox="0 0 1920.000000 1920.000000"
 preserveAspectRatio="xMidYMid meet">

<g transform="translate(0.000000,1920.000000) scale(0.100000,-0.100000)"
fill="#002A48" stroke="none">
<path d="M8895 16593 c-204 -26 -476 -125 -718 -259 -65 -36 -135 -68 -155
-71 -23 -3 -90 9 -179 31 -408 101 -639 64 -847 -133 -118 -113 -214 -255
-329 -486 -95 -191 -139 -266 -212 -360 -131 -168 -387 -416 -583 -565 -150
-113 -243 -220 -311 -355 -52 -105 -71 -183 -71 -293 0 -156 64 -296 264 -582
198 -281 279 -404 307 -465 40 -90 126 -345 160 -473 33 -129 35 -180 13 -307
-9 -49 -17 -123 -17 -163 -2 -65 1 -76 20 -92 14 -11 31 -16 44 -13 29 8 135
109 201 191 179 223 228 287 285 374 101 154 184 345 233 536 l11 42 41 -32
c92 -74 129 -126 154 -223 29 -107 28 -231 -2 -580 -33 -380 -81 -578 -217
-890 -363 -835 -515 -1488 -557 -2400 -12 -246 -7 -798 10 -1095 21 -380 74
-912 115 -1150 18 -105 9 -148 -39 -185 -45 -34 -89 -32 -191 10 -138 57 -241
78 -385 78 -347 0 -618 -167 -755 -466 -144 -313 -115 -687 89 -1147 124 -282
286 -524 737 -1110 301 -391 519 -737 519 -824 0 -24 -3 -27 -22 -23 -13 3
-50 9 -83 12 -33 4 -152 27 -265 51 -1047 221 -1799 267 -2570 154 -602 -88
-1232 -271 -1772 -514 -322 -146 -638 -363 -638 -440 0 -98 268 -173 700 -196
535 -28 1079 -2 2305 110 466 43 935 78 1220 91 292 13 891 7 1085 -11 161
-15 774 -8 1410 15 739 26 1611 19 2295 -21 331 -19 660 -26 705 -16 l34 8
-64 23 c-174 64 -379 176 -532 291 -424 320 -688 810 -789 1470 -30 192 -33
622 -6 825 36 273 108 559 201 798 23 62 83 213 131 337 142 365 259 702 330
951 86 302 137 460 191 586 24 55 48 130 54 165 5 34 10 196 10 358 0 193 6
336 15 415 26 219 26 224 -60 406 -139 295 -174 421 -185 669 -8 200 -9 201
-115 355 -136 198 -337 592 -408 800 -27 80 -30 104 -31 210 -1 113 1 123 26
166 79 134 243 192 409 143 58 -17 193 -86 274 -140 27 -19 53 -34 57 -34 3 0
-23 69 -59 153 -159 369 -176 422 -243 737 -51 238 -41 333 38 378 40 22 169
58 178 49 3 -3 0 -38 -6 -78 -6 -41 -13 -162 -17 -269 -8 -291 11 -422 107
-710 70 -214 105 -290 132 -290 47 0 99 89 143 250 53 188 145 341 292 481
121 116 229 192 493 352 68 41 143 96 185 137 78 74 110 94 181 110 31 7 68
28 111 61 173 139 244 286 245 508 0 154 -32 267 -126 451 -131 256 -218 481
-278 715 -30 118 -31 124 -38 460 -8 376 -21 473 -81 625 -41 101 -59 129
-130 194 -123 114 -294 170 -609 200 -111 10 -148 18 -168 33 -15 11 -66 70
-113 131 -302 392 -569 580 -952 672 -345 83 -460 100 -657 98 -80 0 -158 -3
-175 -5z"/>
<path d="M11875 12276 c-46 -20 -104 -91 -142 -173 -59 -128 -74 -204 -118
-608 -18 -169 -28 -203 -74 -257 -39 -46 -98 -75 -216 -107 -111 -30 -260
-104 -390 -192 -137 -93 -178 -113 -235 -112 -81 2 -147 36 -399 206 -153 103
-220 132 -308 132 -57 0 -77 -4 -100 -21 -59 -44 -69 -119 -33 -251 47 -171
246 -567 403 -802 38 -57 83 -133 99 -168 28 -60 30 -73 38 -246 12 -250 40
-353 176 -638 94 -196 101 -234 79 -395 -12 -84 -19 -231 -25 -504 -8 -412
-10 -430 -65 -540 -36 -72 -99 -260 -175 -525 -107 -374 -182 -589 -403 -1160
-187 -484 -235 -653 -271 -955 -70 -592 20 -1156 256 -1600 301 -566 853 -892
1688 -997 172 -21 695 -24 880 -5 834 87 1496 328 1935 706 361 310 609 742
714 1246 54 256 55 271 55 580 0 263 -3 317 -27 493 -106 778 -115 960 -61
1277 41 242 95 350 316 633 185 237 228 315 228 417 0 54 -5 74 -31 118 -31
54 -93 107 -152 129 -87 32 -192 4 -314 -83 -92 -65 -254 -232 -332 -340 -158
-222 -264 -516 -302 -839 -17 -138 -14 -512 5 -740 34 -408 38 -506 33 -745
-5 -255 -17 -359 -63 -570 -65 -291 -178 -530 -329 -698 -31 -34 -60 -62 -65
-62 -4 0 3 26 15 58 50 124 69 295 87 781 13 373 5 559 -33 778 -51 298 -123
503 -319 908 -99 204 -149 323 -212 505 -57 163 -145 342 -234 478 -155 234
-187 344 -204 691 -19 391 -88 604 -296 918 -46 69 -89 141 -96 162 -8 22 -13
79 -12 146 1 100 6 125 48 270 60 207 73 311 58 459 -22 206 -74 363 -227 687
-126 265 -171 383 -255 659 -125 411 -190 549 -362 771 -90 117 -164 156 -233
125z"/>
</g>
</svg>
